# xmcd
#
# Track frame offsets:
#	150
#	11992
#	27007
#	40955
#	53155
#	67262
#	84975
#	101785
#	115842
#	131915
#	143922
#	161522
#	184857
#
# Disc length: 2571 seconds
#
# Revision: 0
# Processed by: cddbd v1.4PL0 Copyright (c) Steve Scherf et al.
# Submitted via: MusicWizard 6.0.2
#
DISCID=b80a090d
DTITLE=Ed Bruce - This Old Hat
DYEAR=2002
DGENRE=Country
TTITLE0=The Tracks You Left On Me
TTITLE1=You´re The Best Break This Old Heart Ever Had
TTITLE2=How Do You Do That ?
TTITLE3=The Greatest Hit
TTITLE4=This Old Hat
TTITLE5=One
TTITLE6=The Feel Of Bein´ Gone
TTITLE7=The Bartender (It´s All In The Jukebox)
TTITLE8=Truth Is I´m A Liar
TTITLE9=Did He Say It Better Than Me ?
TTITLE10=My First Taste Of Texas
TTITLE11=Growning Up
TTITLE12=My Baby Don´t Need No Polish To Shine
EXTD=CD-11055
EXTT0=
EXTT1=
EXTT2=
EXTT3=
EXTT4=
EXTT5=
EXTT6=
EXTT7=
EXTT8=
EXTT9=
EXTT10=
EXTT11=
EXTT12=
PLAYORDER=
